<svg xmlns="http://www.w3.org/2000/svg" width="135" height="36" viewBox="0 0 135 36">
    <g fill="none" fill-rule="evenodd">
        <path fill="#EF4632" d="M52.61 4.454l-.072 27.073c-.006 2.376-1.957 4.315-4.336 4.309L16.3 35.75l1.837-12.336 6.382-.18c.559-.016 1.07.333 1.244.865a5.002 5.002 0 0 0 4.745 3.446h.05l2.483.003 11.966.02a.883.883 0 0 0 .885-.88v-.019a.883.883 0 0 0-.882-.884l-11.103-.017a.864.864 0 0 1-.861-.864v-.017a.864.864 0 0 1 .864-.862l11.103.019a.883.883 0 0 0 .884-.881v-.019a.882.882 0 0 0-.881-.884l-11.103-.018a.861.861 0 0 1-.86-.863v-.018c0-.476.387-.86.862-.86l11.104.018a.883.883 0 0 0 .885-.881v-.018a.883.883 0 0 0-.882-.884l-11.103-.018a.862.862 0 0 1-.861-.863v-.018c0-.476.387-.861.864-.86l11.103.017a.883.883 0 0 0 .884-.88v-.019a.882.882 0 0 0-.882-.883l-11.965-.02-2.483-.004h-.05a5.001 5.001 0 0 0-4.758 3.43 1.266 1.266 0 0 1-1.246.86l-5.775-.182 1.198-8.042c.071-.486.414-.885.882-1.031 3.012-.94 5.639-4.305 6.415-8.662.09-.504.15-1.003.186-1.495l20.867.055a4.335 4.335 0 0 1 4.313 4.332zM11.053 35.738l-6.734-.018C1.94 35.713 0 33.764.007 31.388l.02-7.46 13.558-.384-2.532 12.194zM.04 18.708L.078 4.314A4.335 4.335 0 0 1 4.414.006l8.212.022c-.413 3.954.874 7.535 3.176 9.302.388.298.572.792.472 1.27l-1.779 8.563L.04 18.707z"/>
        <path fill="#221F20" d="M71.042 10.19V7.927h-5.397v1.909H68.8v.83c0 .953-.207 1.7-.747 2.322-.58.664-1.432 1.037-2.408 1.037-.872 0-1.66-.331-2.18-.891-.726-.789-.892-1.639-.892-4.605s.166-3.795.893-4.584c.519-.56 1.307-.913 2.18-.913 1.66 0 2.74.955 3.113 2.572h2.263c-.416-2.53-2.242-4.584-5.377-4.584-1.577 0-2.864.56-3.882 1.577-1.453 1.452-1.432 3.09-1.432 5.932 0 2.841-.021 4.48 1.432 5.932 1.018 1.016 2.346 1.576 3.882 1.576 1.557 0 2.948-.498 4.069-1.68.976-1.037 1.328-2.26 1.328-4.169M85.22 15.914L79.803 1.146h-1.805l-5.419 14.768h2.388l1.017-2.966h5.833l1.017 2.966h2.388zm-4.027-4.874h-4.546l2.304-6.554 2.242 6.554zM96.555 11.703c0-1.265-.395-2.323-1.204-3.028-.623-.56-1.39-.892-2.76-1.1l-1.682-.248c-.686-.104-1.287-.353-1.661-.684-.394-.354-.56-.83-.56-1.37 0-1.306.954-2.302 2.698-2.302 1.245 0 2.304.27 3.217 1.14l1.433-1.41c-1.267-1.182-2.636-1.68-4.588-1.68-3.072 0-4.94 1.764-4.94 4.335 0 1.204.352 2.136 1.08 2.82.643.603 1.598 1.018 2.8 1.183l1.746.25c.871.124 1.244.269 1.618.621.395.353.582.893.582 1.536 0 1.43-1.12 2.26-3.052 2.26-1.515 0-2.699-.332-3.778-1.41l-1.495 1.472c1.412 1.432 3.01 1.95 5.232 1.95 3.093 0 5.314-1.618 5.314-4.335M108.636 3.158V1.146h-10.38v2.012h4.07v12.756h2.241V3.158zM121.963 15.914L118.56 9.38c1.661-.456 2.947-1.804 2.947-3.92 0-2.51-1.784-4.314-4.587-4.314h-5.73v14.768h2.243V9.692h2.802l3.114 6.222h2.615zM119.265 5.48c0 1.452-1.017 2.303-2.512 2.303h-3.321V3.158h3.32c1.496 0 2.513.871 2.513 2.323zM134.876 8.53c0-2.841.04-4.48-1.412-5.932-1.018-1.016-2.325-1.577-3.902-1.577-1.579 0-2.866.56-3.883 1.577-1.453 1.452-1.432 3.09-1.432 5.932 0 2.841-.021 4.48 1.432 5.932 1.017 1.016 2.304 1.576 3.883 1.576 1.577 0 2.884-.56 3.902-1.576 1.453-1.452 1.412-3.09 1.412-5.932m-2.242 0c0 2.966-.146 3.795-.873 4.583-.519.56-1.328.913-2.2.913-.872 0-1.682-.353-2.2-.913-.727-.788-.873-1.617-.873-4.583s.146-3.796.872-4.584c.52-.56 1.33-.913 2.202-.913.87 0 1.68.354 2.2.913.726.788.872 1.618.872 4.584M70.918 31.098h-2.263c-.352 1.494-1.37 2.53-3.01 2.53-.872 0-1.66-.331-2.18-.891-.726-.788-.892-1.639-.892-4.605s.166-3.816.893-4.604c.518-.56 1.307-.892 2.179-.892 1.64 0 2.637 1.037 2.99 2.53h2.283c-.52-2.945-2.554-4.542-5.273-4.542-1.537 0-2.864.56-3.882 1.576-1.453 1.452-1.432 3.09-1.432 5.932 0 2.841-.02 4.48 1.432 5.932 1.018 1.017 2.345 1.577 3.882 1.577 2.679 0 4.775-1.597 5.273-4.543M84.785 35.516l-5.419-14.768h-1.805l-5.419 14.768h2.388l1.017-2.966h5.833l1.017 2.966h2.388zm-4.028-4.874h-4.546l2.304-6.554 2.242 6.554zM97.655 35.516l-3.404-6.533c1.66-.457 2.947-1.805 2.947-3.92 0-2.51-1.785-4.315-4.588-4.315h-5.729v14.768h2.242v-6.222h2.802l3.114 6.222h2.616zm-2.698-10.433c0 1.452-1.018 2.303-2.512 2.303h-3.322V22.76h3.322c1.494 0 2.512.872 2.512 2.323zM110.982 28.029c0-2.137.104-4.294-1.495-5.89-.934-.934-2.283-1.39-3.82-1.39h-5.189v14.767h5.19c1.536 0 2.885-.456 3.82-1.39 1.598-1.597 1.494-3.961 1.494-6.097m-2.242 0c0 2.032-.02 3.63-.79 4.48-.621.685-1.452.995-2.51.995h-2.72V22.76h2.72c1.058 0 1.889.312 2.51.996.77.85.79 2.24.79 4.273"/>
    </g>
</svg>
