<svg xmlns:svg="http://www.w3.org/2000/svg" xmlns="http://www.w3.org/2000/svg" viewBox="0 -256 1950 1950" version="1.1" width="100" height="100"><g transform="matrix(1,0,0,-1,22.779661,1428.2373)"><path d="m1280 672q0 14-9 23l-352 352q-9 9-23 9-14 0-23-9L522 696q-10-12-10-24 0-14 9-23 9-9 23-9H768V288q0-13 9.5-22.5Q787 256 800 256h192q13 0 22.5 9.5 9.5 9.5 9.5 22.5v352h224q13 0 22.5 9.5 9.5 9.5 9.5 22.5zM1920 384Q1920 225 1807.5 112.5 1695 0 1536 0H448Q263 0 131.5 131.5 0 263 0 448q0 130 70 240 70 110 188 165-2 30-2 43 0 212 150 362 150 150 362 150 156 0 285.5-87 129.5-87 188.5-231 71 62 166 62 106 0 181-75 75-75 75-181 0-76-41-138 130-31 213.5-135.5Q1920 518 1920 384z" fill="#ffffff"/></g></svg>
